<svg preserveAspectRatio="none" width="100%" height="100%" overflow="visible" style="display: block;" viewBox="0 0 39 36" fill="none" xmlns="http://www.w3.org/2000/svg">
<path id="&#226;&#128;&#156;" d="M15.2381 35.2H0V16.3048C0 11.2254 1.01587 7.36508 3.04762 4.72381C5.28254 1.98095 9.04127 0.40635 14.3238 0V8.99048C12.4952 8.99048 10.9714 9.75238 9.75238 11.2762C9.14286 12.0889 8.8381 13.6635 8.8381 16V18.8952H15.2381V35.2ZM39.0095 35.2H23.7714V16.3048C23.7714 11.2254 24.6857 7.51747 26.5143 5.18096C28.9524 2.13334 32.8127 0.40635 38.0952 0V8.99048C34.946 8.99048 33.1683 10.5651 32.7619 13.7143C32.6603 14.1206 32.6095 14.8825 32.6095 16V18.8952H39.0095V35.2Z" fill="var(--fill-0, white)"/>
</svg>
