<svg preserveAspectRatio="none" width="100%" height="100%" overflow="visible" style="display: block;" viewBox="0 0 18 18" fill="none" xmlns="http://www.w3.org/2000/svg">
<g id="iconamoon:search">
<path id="Vector" d="M15.75 15.7502L12.4928 12.4929M12.4928 12.4929C13.0499 11.9357 13.4919 11.2743 13.7934 10.5463C14.095 9.81834 14.2502 9.03811 14.2502 8.25015C14.2502 7.4622 14.095 6.68197 13.7934 5.95399C13.4919 5.22602 13.0499 4.56457 12.4928 4.0074C11.9356 3.45024 11.2741 3.00827 10.5462 2.70673C9.8182 2.4052 9.03797 2.25 8.25002 2.25C7.46207 2.25 6.68183 2.4052 5.95386 2.70673C5.22589 3.00827 4.56443 3.45024 4.00727 4.0074C2.88202 5.13265 2.24986 6.65881 2.24986 8.25015C2.24986 9.84149 2.88202 11.3677 4.00727 12.4929C5.13251 13.6182 6.65868 14.2503 8.25002 14.2503C9.84136 14.2503 11.3675 13.6182 12.4928 12.4929Z" stroke="var(--stroke-0, #A8A8A8)" stroke-width="1.35" stroke-linecap="round" stroke-linejoin="round"/>
</g>
</svg>
