<svg preserveAspectRatio="none" width="100%" height="100%" overflow="visible" style="display: block;" viewBox="0 0 27 27" fill="none" xmlns="http://www.w3.org/2000/svg">
<g id="fluent:hat-graduation-12-regular" clip-path="url(#clip0_167_713)">
<path id="Vector" d="M15.39 4.92525C14.7993 4.64507 14.1538 4.49972 13.5 4.49972C12.8462 4.49972 12.2007 4.64507 11.61 4.92525L0.6435 10.1205C0.441658 10.2157 0.272698 10.3688 0.15811 10.5603C0.0435227 10.7519 -0.0115141 10.9731 0 11.196V18.0045C0 18.3029 0.118526 18.589 0.329505 18.8C0.540483 19.011 0.826631 19.1295 1.125 19.1295C1.42337 19.1295 1.70952 19.011 1.9205 18.8C2.13147 18.589 2.25 18.3029 2.25 18.0045V12.951L4.5 14.067V20.2545C4.50003 20.4025 4.52926 20.549 4.58602 20.6857C4.64277 20.8224 4.72594 20.9465 4.83075 21.051L4.887 21.105L5.022 21.2288C5.1345 21.3368 5.29725 21.4778 5.51025 21.6518C5.931 21.996 6.5385 22.4505 7.29675 22.9072C8.80425 23.8095 10.9733 24.7523 13.5 24.7523C16.0268 24.7523 18.198 23.8095 19.7032 22.9072C20.5132 22.4204 21.2755 21.8584 21.9802 21.2288L22.1153 21.105L22.167 21.051H22.1715C22.2762 20.9461 22.3591 20.8215 22.4155 20.6844C22.4718 20.5473 22.5006 20.4005 22.5 20.2523V14.0647L26.3745 12.1432C26.5639 12.0495 26.723 11.9042 26.8337 11.7241C26.9444 11.5441 27.0021 11.3365 27.0002 11.1251C26.9983 10.9138 26.9369 10.7072 26.8231 10.5291C26.7092 10.3511 26.5475 10.2087 26.3565 10.1183L15.39 4.92525ZM15.462 17.559L20.25 15.183V19.755L20.0655 19.9125C19.5842 20.3016 19.0768 20.6572 18.5467 20.9768C17.2417 21.7597 15.4733 22.5045 13.5 22.5045C11.5268 22.5045 9.7605 21.762 8.45325 20.9768C7.85469 20.6143 7.28523 20.2058 6.75 19.755V15.183L11.538 17.559C12.7755 18.171 14.2245 18.171 15.462 17.559ZM14.427 6.95925L23.2965 11.16L14.4608 15.543C14.1622 15.6913 13.8334 15.7684 13.5 15.7684C13.1666 15.7684 12.8378 15.6913 12.5393 15.543L3.7035 11.16L12.573 6.95925C12.8627 6.82162 13.1793 6.75022 13.5 6.75022C13.8207 6.75022 14.1373 6.82162 14.427 6.95925Z" fill="var(--fill-0, white)"/>
</g>
<defs>
<clipPath id="clip0_167_713">
<rect width="27" height="27" fill="white"/>
</clipPath>
</defs>
</svg>
