<svg preserveAspectRatio="none" width="100%" height="100%" overflow="visible" style="display: block;" viewBox="0 0 19 24" fill="none" xmlns="http://www.w3.org/2000/svg">
<g id="Group">
<g id="Vector">
</g>
<path id="Vector_2" fill-rule="evenodd" clip-rule="evenodd" d="M0.462 1.51245C0.493508 1.24754 0.586378 0.993644 0.733229 0.770931C0.88008 0.548218 1.07686 0.362834 1.30793 0.229516C1.539 0.0961988 1.79798 0.018624 2.06429 0.00295941C2.3306 -0.0127052 2.5969 0.0339723 2.842 0.139281C4.081 0.668948 6.85767 1.92778 10.381 3.96128C13.9055 5.99595 16.3847 7.77278 17.4615 8.57895C18.3808 9.26845 18.3832 10.6358 17.4627 11.3276C16.3963 12.1291 13.9475 13.8826 10.381 15.9429C6.811 18.0033 4.067 19.2469 2.83967 19.7696C1.78267 20.2211 0.599667 19.5363 0.462 18.3964C0.301 17.0641 0 14.0389 0 9.95328C0 5.86995 0.299834 2.84595 0.462 1.51245Z" fill="var(--fill-0, black)"/>
</g>
</svg>
