<svg preserveAspectRatio="none" width="100%" height="100%" overflow="visible" style="display: block;" viewBox="0 0 27 27" fill="none" xmlns="http://www.w3.org/2000/svg">
<g id="carbon:tool-kit">
<path id="Vector" d="M7.52119 20.6719L11.113 17.08L9.91997 15.887L6.32812 19.4788L5.65903 18.8097C5.5008 18.6515 5.28623 18.5627 5.0625 18.5627C4.83877 18.5627 4.6242 18.6515 4.46597 18.8097L1.09097 22.1847C0.93279 22.3429 0.84393 22.5575 0.84393 22.7812C0.84393 23.005 0.93279 23.2196 1.09097 23.3778L3.62222 25.909C3.78045 26.0672 3.99502 26.1561 4.21875 26.1561C4.44248 26.1561 4.65705 26.0672 4.81528 25.909L8.19028 22.534C8.34846 22.3758 8.43732 22.1612 8.43732 21.9375C8.43732 21.7138 8.34846 21.4992 8.19028 21.341L7.52119 20.6719ZM4.21875 24.1194L2.88056 22.7812L5.0625 20.5993L6.40069 21.9375L4.21875 24.1194Z" fill="var(--fill-0, white)"/>
<path id="Vector_2" d="M20.25 25.3125C18.9078 25.3109 17.6211 24.7771 16.672 23.828C15.7229 22.8789 15.1891 21.5922 15.1875 20.25C15.1875 19.8089 15.2471 19.3698 15.3647 18.9447L8.05613 11.6353C7.63033 11.751 7.19124 11.8106 6.75 11.8125C5.92517 11.8158 5.11213 11.6167 4.38216 11.2327C3.65219 10.8486 3.02758 10.2913 2.56309 9.60973C2.0986 8.92812 1.80842 8.14296 1.71799 7.3231C1.62756 6.50324 1.73964 5.67371 2.04441 4.90725L2.51522 3.70828L5.30972 6.50278C5.47034 6.65637 5.68401 6.74209 5.90625 6.74209C6.12849 6.74209 6.34216 6.65637 6.50278 6.50278C6.66096 6.34455 6.74982 6.12998 6.74982 5.90625C6.74982 5.68252 6.66096 5.46795 6.50278 5.30972L3.70659 2.51353L4.90725 2.04356C5.67379 1.73899 6.50333 1.62708 7.32318 1.71765C8.14302 1.80821 8.92813 2.09849 9.60971 2.56303C10.2913 3.02758 10.8485 3.65221 11.2326 4.38218C11.6166 5.11215 11.8157 5.92518 11.8125 6.75C11.8125 7.19109 11.7529 7.63016 11.6353 8.05528L18.9447 15.3647C19.3702 15.249 19.809 15.1895 20.25 15.1875C21.0748 15.1842 21.8879 15.3833 22.6178 15.7673C23.3478 16.1514 23.9724 16.7087 24.4369 17.3903C24.9014 18.0719 25.1916 18.857 25.282 19.6769C25.3724 20.4968 25.2604 21.3263 24.9556 22.0927L24.4856 23.2917L21.6903 20.4972C21.5297 20.3439 21.3162 20.2583 21.0942 20.2583C20.8721 20.2583 20.6586 20.3439 20.4981 20.4972C20.3398 20.6553 20.2508 20.8698 20.2506 21.0936C20.2504 21.3173 20.3392 21.5319 20.4972 21.6903L23.2926 24.4856L22.0928 24.9564C21.5061 25.1889 20.8811 25.3097 20.25 25.3125ZM8.49066 9.68288L17.3163 18.5102L17.1146 19.024C16.917 19.518 16.8398 20.052 16.8893 20.5817C16.9388 21.1115 17.1136 21.6219 17.3993 22.0707C17.685 22.5195 18.0734 22.894 18.5324 23.1631C18.9914 23.4322 19.5078 23.5882 20.0391 23.6182L19.3042 22.8842C19.0691 22.6491 18.8826 22.3701 18.7553 22.0629C18.6281 21.7558 18.5626 21.4266 18.5626 21.0942C18.5626 20.7617 18.6281 20.4325 18.7553 20.1254C18.8826 19.8183 19.0691 19.5392 19.3042 19.3042C19.7862 18.8433 20.4273 18.5862 21.0942 18.5862C21.761 18.5862 22.4022 18.8433 22.8842 19.3042L23.6183 20.0391C23.588 19.5078 23.4319 18.9914 23.1627 18.5324C22.8935 18.0734 22.519 17.685 22.0701 17.3993C21.6212 17.1136 21.1108 16.9388 20.581 16.8893C20.0512 16.8398 19.5172 16.917 19.0232 17.1146L18.5093 17.3163L9.68372 8.49066L9.88622 7.97597C10.0837 7.48189 10.1607 6.94794 10.1111 6.41819C10.0615 5.88845 9.88656 5.3781 9.60079 4.92929C9.31502 4.48049 8.92659 4.10609 8.46758 3.837C8.00858 3.56792 7.49215 3.41188 6.96094 3.38175L7.695 4.11581C7.93009 4.35087 8.11658 4.62993 8.24382 4.93706C8.37105 5.24419 8.43654 5.57338 8.43654 5.90583C8.43654 6.23827 8.37105 6.56746 8.24382 6.87459C8.11658 7.18173 7.93009 7.46079 7.695 7.69584C7.21299 8.15666 6.57183 8.41384 5.90498 8.41384C5.23814 8.41384 4.59698 8.15666 4.11497 7.69584L3.38091 6.96094C3.41098 7.49215 3.567 8.00859 3.83609 8.46759C4.10518 8.92659 4.47961 9.31499 4.92845 9.6007C5.3773 9.88641 5.88768 10.0612 6.41743 10.1107C6.94719 10.1602 7.48112 10.083 7.97512 9.88537L8.49066 9.68288Z" fill="var(--fill-0, white)"/>
<path id="Vector_3" d="M24.5725 2.40469C24.0905 1.94387 23.4494 1.68669 22.7825 1.68669C22.1157 1.68669 21.4745 1.94387 20.9925 2.40469L14.6812 8.71594L15.8743 9.909L22.1856 3.59775C22.3463 3.44435 22.5599 3.35877 22.7821 3.35877C23.0043 3.35877 23.2179 3.44435 23.3786 3.59775C23.5368 3.75598 23.6257 3.97055 23.6257 4.19428C23.6257 4.41801 23.5368 4.63259 23.3786 4.79081L17.0674 11.1021L18.2604 12.296L24.5717 5.98472C25.0459 5.50968 25.3122 4.8659 25.3122 4.1947C25.3122 3.52351 25.0467 2.87973 24.5725 2.40469Z" fill="var(--fill-0, white)"/>
</g>
</svg>
