<svg preserveAspectRatio="none" width="100%" height="100%" overflow="visible" style="display: block;" viewBox="0 0 27 27" fill="none" xmlns="http://www.w3.org/2000/svg">
<g id="grommet-icons:money">
<path id="Vector" d="M18 18C18 16.7569 14.4742 15.75 10.125 15.75M18 18C18 19.2431 14.4742 20.25 10.125 20.25C5.77575 20.25 2.25 19.2431 2.25 18M18 18V23.5541C18 24.8355 14.4742 25.875 10.125 25.875C5.77575 25.875 2.25 24.8366 2.25 23.5541V18M18 18C22.302 18 25.875 16.8896 25.875 15.75V4.5M10.125 15.75C5.77575 15.75 2.25 16.7569 2.25 18M10.125 15.75C5.15475 15.75 1.125 14.6396 1.125 13.5V7.875M10.125 5.625C5.15475 5.625 1.125 6.63187 1.125 7.875M1.125 7.875C1.125 9.11813 5.15475 10.125 10.125 10.125C10.125 11.2646 13.7846 12.375 18.0866 12.375C22.3886 12.375 25.875 11.2646 25.875 10.125M25.875 4.5C25.875 3.25687 22.3875 2.25 18.0866 2.25C13.7857 2.25 10.2983 3.25687 10.2983 4.5M25.875 4.5C25.875 5.74313 22.3875 6.75 18.0866 6.75C13.7857 6.75 10.2983 5.74313 10.2983 4.5M10.2983 4.5V15.9368" stroke="var(--stroke-0, white)" stroke-width="2.25"/>
</g>
</svg>
