<svg preserveAspectRatio="none" width="100%" height="100%" overflow="visible" style="display: block;" viewBox="0 0 27 27" fill="none" xmlns="http://www.w3.org/2000/svg">
<g id="ic:twotone-motorcycle">
<path id="Vector" opacity="0.3" d="M10.9125 13.8488L11.1937 14.625H12.06L14.31 12.375H10.1025C10.44 12.8137 10.71 13.3088 10.9125 13.8488Z" fill="var(--fill-0, white)"/>
<path id="Vector_2" d="M21.87 10.1587L17.3362 5.625H12.375V7.875H16.4138L18.6638 10.125H5.625C2.475 10.125 0 12.6 0 15.75C0 18.9 2.475 21.375 5.625 21.375C8.3925 21.375 10.6312 19.4737 11.1375 16.875H12.9938L16.11 13.7587C15.8737 14.3662 15.75 15.0413 15.75 15.75C15.75 18.9 18.225 21.375 21.375 21.375C24.525 21.375 27 18.9 27 15.75C27 12.7687 24.7838 10.3837 21.87 10.1587ZM8.7975 16.875C8.325 18.1687 7.065 19.125 5.625 19.125C3.79125 19.125 2.25 17.5837 2.25 15.75C2.25 13.9163 3.79125 12.375 5.625 12.375C7.065 12.375 8.325 13.3313 8.7975 14.625H5.625V16.875H8.7975ZM12.06 14.625H11.1937L10.9125 13.8488C10.71 13.3088 10.44 12.8137 10.1025 12.375H14.31L12.06 14.625ZM21.375 19.125C19.5075 19.125 18 17.6175 18 15.75C18 13.8825 19.5075 12.375 21.375 12.375C23.2425 12.375 24.75 13.8825 24.75 15.75C24.75 17.6175 23.2425 19.125 21.375 19.125Z" fill="var(--fill-0, white)"/>
</g>
</svg>
