<svg preserveAspectRatio="none" width="100%" height="100%" overflow="visible" style="display: block;" viewBox="0 0 20 20" fill="none" xmlns="http://www.w3.org/2000/svg">
<g id="akar-icons:linkedin-fill">
<path id="Vector" fill-rule="evenodd" clip-rule="evenodd" d="M7.8575 7.47417L10.9525 7.47417V9.01583C11.3983 8.12917 12.5417 7.3325 14.2592 7.3325C17.5517 7.3325 18.3333 9.0975 18.3333 12.3358V18.3333H15L15 13.0733C15 11.2292 14.5542 10.1892 13.4192 10.1892C11.845 10.1892 11.1908 11.31 11.1908 13.0725L11.1908 18.3333H7.8575L7.8575 7.47417ZM2.14167 18.1917H5.475L5.475 7.3325H2.14167L2.14167 18.1917ZM5.9525 3.79167C5.95262 4.07106 5.89721 4.3477 5.78949 4.60549C5.68177 4.86328 5.52388 5.09709 5.325 5.29333C5.12553 5.49176 4.88892 5.64895 4.62869 5.7559C4.36845 5.86286 4.08969 5.91748 3.80833 5.91667C3.24134 5.91539 2.69743 5.69191 2.29333 5.29417C2.09525 5.09721 1.93794 4.86312 1.83041 4.60531C1.72288 4.34749 1.66724 4.07101 1.66667 3.79167C1.66667 3.2275 1.89167 2.6875 2.29417 2.28917C2.69725 1.8899 3.24181 1.66615 3.80917 1.66667C4.3775 1.66667 4.9225 1.89083 5.325 2.28917C5.7275 2.6875 5.9525 3.2275 5.9525 3.79167Z" fill="var(--fill-0, white)"/>
</g>
</svg>
