<svg preserveAspectRatio="none" width="100%" height="100%" overflow="visible" style="display: block;" viewBox="0 0 23 23" fill="none" xmlns="http://www.w3.org/2000/svg">
<g id="formkit:people" clip-path="url(#clip0_167_721)">
<path id="Vector" d="M11.13 10.3862C10.1462 10.3862 9.20272 9.99544 8.50708 9.2998C7.81143 8.60416 7.42063 7.66066 7.42063 6.67687C7.42063 5.69309 7.81143 4.74959 8.50708 4.05395C9.20272 3.35831 10.1462 2.9675 11.13 2.9675C12.1138 2.9675 13.0573 3.35831 13.7529 4.05395C14.4486 4.74959 14.8394 5.69309 14.8394 6.67687C14.8394 7.66066 14.4486 8.60416 13.7529 9.2998C13.0573 9.99544 12.1138 10.3862 11.13 10.3862ZM11.13 4.45125C9.89849 4.45125 8.90438 5.44536 8.90438 6.67687C8.90438 7.90839 9.89849 8.9025 11.13 8.9025C12.3615 8.9025 13.3556 7.90839 13.3556 6.67687C13.3556 5.44536 12.3615 4.45125 11.13 4.45125Z" fill="var(--fill-0, white)"/>
<path id="Vector_2" d="M20.0325 16.3212C19.617 16.3212 19.2906 15.9948 19.2906 15.5794C19.2906 15.1639 19.617 14.8375 20.0325 14.8375C20.4479 14.8375 20.7744 14.5111 20.7744 14.0956C20.7744 13.1118 20.3836 12.1683 19.6879 11.4727C18.9923 10.7771 18.0488 10.3862 17.065 10.3862H15.5812C15.1658 10.3862 14.8394 10.0598 14.8394 9.64437C14.8394 9.22892 15.1658 8.9025 15.5812 8.9025C16.8128 8.9025 17.8069 7.90839 17.8069 6.67687C17.8069 5.44536 16.8128 4.45125 15.5812 4.45125C15.1658 4.45125 14.8394 4.12482 14.8394 3.70937C14.8394 3.29392 15.1658 2.9675 15.5812 2.9675C16.565 2.9675 17.5085 3.35831 18.2042 4.05395C18.8998 4.74959 19.2906 5.69309 19.2906 6.67687C19.2906 7.5968 18.9642 8.4277 18.4004 9.08055C20.6112 9.67405 22.2581 11.6919 22.2581 14.0956C22.2581 15.3271 21.264 16.3212 20.0325 16.3212ZM2.2275 16.3212C0.995988 16.3212 0.00187511 15.3271 0.00187511 14.0956C0.00187511 11.6919 1.634 9.67405 3.85962 9.08055C3.31064 8.4277 2.96938 7.5968 2.96938 6.67687C2.96938 5.69309 3.36018 4.74959 4.05583 4.05395C4.75147 3.35831 5.69496 2.9675 6.67875 2.9675C7.0942 2.9675 7.42063 3.29392 7.42063 3.70937C7.42063 4.12482 7.0942 4.45125 6.67875 4.45125C5.44724 4.45125 4.45313 5.44536 4.45313 6.67687C4.45313 7.90839 5.44724 8.9025 6.67875 8.9025C7.0942 8.9025 7.42063 9.22892 7.42063 9.64437C7.42063 10.0598 7.0942 10.3862 6.67875 10.3862H5.195C4.21121 10.3862 3.26772 10.7771 2.57208 11.4727C1.87643 12.1683 1.48563 13.1118 1.48563 14.0956C1.48563 14.5111 1.81205 14.8375 2.2275 14.8375C2.64295 14.8375 2.96938 15.1639 2.96938 15.5794C2.96938 15.9948 2.64295 16.3212 2.2275 16.3212ZM15.5812 20.7725H6.67875C5.44724 20.7725 4.45313 19.7784 4.45313 18.5469V17.0631C4.45313 14.1995 6.78261 11.87 9.64625 11.87H12.6137C15.4774 11.87 17.8069 14.1995 17.8069 17.0631V18.5469C17.8069 19.7784 16.8128 20.7725 15.5812 20.7725ZM9.64625 13.3537C8.66246 13.3537 7.71897 13.7446 7.02333 14.4402C6.32768 15.1358 5.93688 16.0793 5.93688 17.0631V18.5469C5.93688 18.9623 6.2633 19.2887 6.67875 19.2887H15.5812C15.9967 19.2887 16.3231 18.9623 16.3231 18.5469V17.0631C16.3231 16.0793 15.9323 15.1358 15.2367 14.4402C14.541 13.7446 13.5975 13.3537 12.6137 13.3537H9.64625Z" fill="var(--fill-0, white)"/>
</g>
<defs>
<clipPath id="clip0_167_721">
<rect width="22.26" height="22.26" fill="white"/>
</clipPath>
</defs>
</svg>
